<?xml version="1.0" standalone="no"?>
<!DOCTYPE svg PUBLIC "-//W3C//DTD SVG 20010904//EN"
 "http://www.w3.org/TR/2001/REC-SVG-20010904/DTD/svg10.dtd">
<svg version="1.0" xmlns="http://www.w3.org/2000/svg"
 width="200.000000pt" height="200.000000pt" viewBox="0 0 200.000000 200.000000"
 preserveAspectRatio="xMidYMid meet">
<metadata>
Created by potrace 1.11, written by Peter Selinger 2001-2013
</metadata>
<g transform="translate(0.000000,200.000000) scale(0.100000,-0.100000)"
fill="#000000" stroke="none">
<path d="M1743 1155 c1 -97 4 -125 14 -125 7 0 13 4 13 9 0 5 13 3 29 -5 59
-30 109 20 98 98 -9 68 -66 96 -113 57 -12 -10 -14 -3 -14 40 0 36 -4 51 -13
51 -11 0 -14 -27 -14 -125z m125 -34 c4 -50 -10 -71 -48 -71 -42 0 -67 74 -37
112 34 43 81 21 85 -41z"/>
<path d="M110 1263 c0 -5 9 -37 21 -70 32 -95 87 -143 165 -143 19 0 46 -7 59
-16 53 -34 22 6 -44 57 -37 30 -74 62 -80 72 -7 10 19 -5 56 -33 73 -56 85
-53 63 14 -13 42 -53 83 -96 101 -42 17 -144 30 -144 18z"/>
<path d="M593 1260 c-81 -17 -126 -54 -150 -126 -19 -56 -1 -55 77 2 l75 55
-60 -55 c-33 -31 -75 -66 -92 -78 -37 -26 -46 -49 -10 -26 12 8 40 15 62 16
90 3 141 50 175 161 l18 61 -26 -1 c-15 -1 -46 -5 -69 -9z"/>
<path d="M1283 1203 c-7 -2 -10 -10 -8 -16 2 -7 13 -44 25 -83 28 -98 43 -101
72 -13 12 38 25 66 28 62 3 -5 14 -33 23 -65 16 -50 39 -79 51 -60 12 21 46
164 41 172 -9 15 -22 4 -29 -27 -4 -16 -12 -46 -18 -68 l-11 -40 -21 70 c-13
43 -27 70 -36 70 -8 0 -22 -23 -33 -55 -10 -30 -22 -59 -27 -63 -4 -5 -13 15
-20 45 -15 64 -21 76 -37 71z"/>
<path d="M1574 1185 c-32 -32 -34 -105 -4 -135 11 -11 23 -20 28 -21 4 0 16
-2 27 -4 30 -6 65 5 65 20 0 9 -11 12 -40 8 -44 -6 -70 8 -70 38 0 17 8 19 61
19 l61 0 -7 33 c-9 42 -28 60 -66 63 -22 2 -39 -5 -55 -21z m91 -36 c0 -10
-14 -14 -42 -15 -42 -2 -52 7 -35 32 19 28 77 15 77 -17z"/>
<path d="M353 979 c-6 -6 -34 -13 -62 -15 -62 -4 -103 -24 -131 -64 -25 -34
-62 -148 -51 -154 3 -3 37 1 74 8 101 19 154 66 164 147 l6 44 -44 -36 c-24
-19 -60 -45 -79 -58 -35 -22 -35 -22 5 14 22 20 64 55 93 77 28 22 52 42 52
44 0 8 -16 4 -27 -7z"/>
<path d="M440 952 c25 -20 65 -57 90 -81 45 -43 45 -43 -22 8 -37 29 -72 50
-77 47 -12 -8 2 -66 24 -100 29 -44 80 -65 192 -80 l31 -4 -15 52 c-20 69 -41
106 -72 134 -29 25 -94 46 -122 39 -10 -3 -26 1 -36 9 -41 30 -35 10 7 -24z"/>
<path d="M1410 850 c0 -100 3 -130 13 -130 9 0 13 15 12 48 -2 70 7 94 38 105
44 14 57 -4 57 -84 0 -54 3 -69 15 -69 21 0 19 138 -3 163 -16 19 -77 24 -87
7 -12 -20 -22 0 -20 39 1 26 -3 42 -12 45 -10 4 -13 -20 -13 -124z"/>
<path d="M1300 926 c0 -7 -7 -19 -15 -26 -17 -14 -21 -35 -5 -25 6 4 10 -17
10 -57 0 -35 6 -70 13 -79 17 -22 54 -30 68 -13 9 11 7 14 -14 14 -30 0 -37
15 -37 86 0 38 4 54 13 53 23 -3 37 1 37 11 0 6 -11 10 -25 10 -18 0 -25 5
-25 20 0 11 -4 20 -10 20 -5 0 -10 -6 -10 -14z"/>
<path d="M670 893 c0 -5 11 -44 23 -88 30 -107 48 -110 78 -15 l24 72 21 -69
c15 -50 26 -69 40 -71 16 -2 22 9 36 65 10 37 20 78 24 91 5 16 2 22 -9 22
-10 0 -20 -22 -33 -72 l-18 -73 -21 70 c-29 96 -46 97 -77 3 l-25 -73 -17 73
c-12 46 -23 72 -32 72 -8 0 -14 -3 -14 -7z"/>
<path d="M977 886 c-42 -32 -40 -133 3 -156 31 -16 78 -12 100 10 11 11 20 23
21 28 0 4 2 16 5 27 5 27 -12 75 -33 91 -23 17 -73 17 -96 0z m91 -34 c29 -38
1 -112 -42 -112 -33 0 -51 26 -51 72 0 63 56 87 93 40z"/>
<path d="M1155 813 c0 -60 4 -88 13 -90 7 -3 12 6 13 24 3 101 10 120 50 128
16 4 29 11 29 16 0 15 -42 10 -62 -8 -17 -15 -18 -15 -18 0 0 10 -6 17 -13 17
-9 0 -12 -23 -12 -87z"/>
</g>
</svg>
